<?xml version="1.0" encoding="UTF-8" standalone="no"?><!DOCTYPE svg PUBLIC "-//W3C//DTD SVG 1.1//EN" "http://www.w3.org/Graphics/SVG/1.1/DTD/svg11.dtd"><svg width="100%" height="100%" viewBox="0 0 15 15" version="1.1" xmlns="http://www.w3.org/2000/svg" xmlns:xlink="http://www.w3.org/1999/xlink" xml:space="preserve" xmlns:serif="http://www.serif.com/" style="fill-rule:evenodd;clip-rule:evenodd;stroke-linejoin:round;stroke-miterlimit:2;"><path d="M13.432,11.584l0,1.644c0,0.339 0.275,0.614 0.614,0.614c0.339,-0 0.614,-0.275 0.614,-0.614l-0,-3.273c-0,-0.339 -0.275,-0.614 -0.614,-0.614l-3.273,0c-0.339,0 -0.614,0.275 -0.614,0.614c0,0.339 0.275,0.613 0.614,0.613l1.861,0c-1.084,1.751 -3.014,2.852 -5.115,2.852c-2.988,0 -5.546,-2.227 -5.957,-5.186c-0.047,-0.336 -0.357,-0.57 -0.693,-0.524c-0.335,0.047 -0.57,0.357 -0.523,0.693c0.495,3.563 3.575,6.245 7.173,6.245c2.378,-0 4.575,-1.172 5.913,-3.064Zm-11.864,-8.168l-0,-1.644c-0,-0.339 -0.275,-0.614 -0.614,-0.614c-0.339,0 -0.614,0.275 -0.614,0.614l0,3.273c0,0.339 0.275,0.614 0.614,0.614l3.273,-0c0.339,-0 0.614,-0.275 0.614,-0.614c-0,-0.339 -0.275,-0.613 -0.614,-0.613l-1.861,-0c1.084,-1.751 3.014,-2.852 5.115,-2.852c2.988,-0 5.546,2.227 5.957,5.186c0.047,0.336 0.357,0.57 0.693,0.524c0.335,-0.047 0.57,-0.357 0.523,-0.693c-0.495,-3.563 -3.575,-6.245 -7.173,-6.245c-2.378,0 -4.575,1.172 -5.913,3.064Z" style="fill:#f8fafc;"/></svg>